<svg width="110.000000" height="36.000000" viewBox="0 0 110 36" fill="none" xmlns="http://www.w3.org/2000/svg" xmlns:xlink="http://www.w3.org/1999/xlink">
	<desc>
			Created with Pixso.
	</desc>
	<defs>
		<linearGradient id="paint_linear_20_57_0" x1="1.935523" y1="18.000027" x2="15.483911" y2="31.548416" gradientUnits="userSpaceOnUse">
			<stop stop-color="#40DDFF"/>
			<stop offset="0.192353" stop-color="#14BAE3"/>
			<stop offset="0.686424" stop-color="#13B1E6"/>
			<stop offset="0.817657" stop-color="#11AADF"/>
			<stop offset="1.000000" stop-color="#0B98C5"/>
		</linearGradient>
	</defs>
	<path id="Kreed" d="M94.74 15.79Q93.91 17.33 93.91 19.32Q93.91 21.25 94.68 22.79Q94.71 22.84 94.74 22.89Q95.31 23.98 96.18 24.74Q96.56 25.07 96.99 25.34Q97.55 25.68 98.16 25.89Q99.1 26.21 100.15 26.21Q101.69 26.21 102.87 25.59Q104.06 24.96 104.73 24L104.73 26L107.49 26L107.49 8.24L104.73 8.24L104.73 14.62Q103.99 13.68 102.73 13.12Q101.65 12.63 100.54 12.56Q100.36 12.55 100.17 12.55Q98.99 12.55 97.95 12.94Q97.46 13.13 96.99 13.41Q96.51 13.69 96.1 14.06Q95.28 14.77 94.74 15.79ZM43.53 18.53L49.99 26L53.56 26L46.2 17.67L53.44 9.31L50.01 9.31L43.53 16.92L43.53 9.31L40.79 9.31L40.79 26L43.53 26L43.53 18.53ZM59.59 13.64Q59.09 14.09 58.72 14.69L58.72 12.77L55.99 12.77L55.99 26L58.72 26L58.72 19.03Q58.72 17.02 59.55 16.2Q59.56 16.19 59.57 16.18Q60.41 15.39 61.99 15.39L62.68 15.39L62.68 12.55Q61.32 12.55 60.32 13.12Q59.92 13.35 59.59 13.64ZM77.23 20.41Q77.32 19.8 77.32 19.06Q77.32 17.19 76.55 15.75Q76.53 15.71 76.5 15.66Q76.08 14.9 75.48 14.31Q74.93 13.76 74.23 13.37Q74.08 13.29 73.94 13.22Q72.58 12.55 70.89 12.55Q69.04 12.55 67.59 13.32Q67.52 13.36 67.45 13.4Q66.79 13.76 66.27 14.26Q65.59 14.91 65.12 15.78Q64.29 17.33 64.29 19.37Q64.29 21.41 65.14 22.96Q65.63 23.85 66.33 24.51Q66.85 25 67.49 25.36Q67.7 25.48 67.92 25.58Q69.26 26.21 70.89 26.21Q73.02 26.21 74.52 25.24Q74.66 25.15 74.79 25.05Q75.66 24.41 76.23 23.56Q76.69 22.88 76.96 22.06L74.01 22.06Q73.61 22.87 72.96 23.33Q72.13 23.91 70.89 23.91Q69.92 23.91 69.13 23.52Q68.68 23.3 68.3 22.95Q67.97 22.65 67.73 22.29Q67.2 21.5 67.12 20.41L77.23 20.41ZM92.03 20.41Q92.13 19.8 92.13 19.06Q92.13 17.19 91.36 15.75Q91.34 15.71 91.31 15.66Q90.89 14.9 90.29 14.31Q89.74 13.76 89.03 13.37Q88.89 13.29 88.75 13.22Q87.39 12.55 85.7 12.55Q83.85 12.55 82.4 13.32Q82.33 13.36 82.25 13.4Q81.6 13.76 81.08 14.26Q80.39 14.91 79.93 15.78Q79.1 17.33 79.1 19.37Q79.1 21.41 79.95 22.96Q80.44 23.85 81.14 24.51Q81.66 25 82.3 25.36Q82.51 25.48 82.73 25.58Q84.07 26.21 85.7 26.21Q87.83 26.21 89.33 25.24Q89.47 25.15 89.6 25.05Q90.47 24.41 91.04 23.56Q91.5 22.88 91.77 22.06L88.82 22.06Q88.42 22.87 87.77 23.33Q86.94 23.91 85.7 23.91Q84.73 23.91 83.94 23.52Q83.49 23.3 83.1 22.95Q82.78 22.65 82.54 22.29Q82.01 21.5 81.93 20.41L92.03 20.41ZM74.04 16.55Q74.45 17.26 74.47 18.2L67.15 18.2Q67.3 17.02 67.92 16.22Q68.11 15.97 68.35 15.76Q68.77 15.38 69.26 15.16Q69.94 14.86 70.77 14.86Q71.91 14.86 72.78 15.34Q73.1 15.52 73.39 15.77Q73.79 16.12 74.04 16.55ZM88.85 16.55Q89.26 17.26 89.27 18.2L81.96 18.2Q82.1 17.02 82.73 16.22Q82.92 15.97 83.16 15.76Q83.58 15.38 84.06 15.16Q84.75 14.86 85.58 14.86Q86.72 14.86 87.58 15.34Q87.91 15.52 88.2 15.77Q88.6 16.12 88.85 16.55ZM104.16 17Q104.73 18 104.73 19.37Q104.73 20.74 104.16 21.76Q103.7 22.61 102.99 23.11Q102.84 23.22 102.69 23.31Q102.25 23.56 101.77 23.69Q101.27 23.83 100.72 23.83Q100.35 23.83 99.99 23.76Q99.36 23.64 98.77 23.29Q98.59 23.19 98.43 23.07Q97.73 22.56 97.28 21.72Q96.72 20.69 96.72 19.32Q96.72 17.96 97.28 16.96Q97.72 16.17 98.39 15.68Q98.57 15.56 98.76 15.45Q99.19 15.2 99.67 15.07Q100.18 14.93 100.72 14.93Q101.27 14.93 101.77 15.07Q102.25 15.2 102.69 15.46Q102.86 15.56 103.03 15.68Q103.71 16.18 104.16 17Z" fill="#FFFFFF" fill-opacity="1.000000" fill-rule="evenodd"/>
	<rect id="Rectangle 63" y="3.000000" rx="6.000000" width="30.000000" height="30.000000" fill="#FFFFFF" fill-opacity="1.000000"/>
	<path id="K." d="M8.7 12.75L8.7 23.15C8.7 23.99 9.39 24.67 10.23 24.67C11.07 24.67 11.76 23.99 11.76 23.15L11.76 12.75C11.76 11.9 11.07 11.22 10.23 11.22C9.39 11.22 8.7 11.9 8.7 12.75ZM14.61 12.2L14.53 12.42C13.75 14.75 13.36 15.91 13.26 17.11C13.2 17.77 13.21 18.45 13.29 19.11C13.43 20.3 13.86 21.45 14.71 23.75C14.91 24.31 15.44 24.67 16.03 24.67C17 24.67 17.68 23.7 17.35 22.79L16.15 19.49C15.83 18.6 15.81 17.63 16.11 16.74L17.32 13.1C17.63 12.18 16.94 11.22 15.97 11.22C15.35 11.22 14.81 11.61 14.61 12.2ZM19.85 22.04C19.29 22.32 19.01 22.75 19.01 23.33C19.01 23.56 19.07 23.78 19.2 24C19.49 24.51 19.97 24.77 20.63 24.77C20.89 24.77 21.14 24.71 21.39 24.6C21.96 24.34 22.25 23.92 22.25 23.33C22.25 23.07 22.19 22.83 22.06 22.62C21.76 22.12 21.28 21.87 20.63 21.87C20.36 21.87 20.1 21.93 19.85 22.04Z" fill="url(#paint_linear_20_57_0)" fill-opacity="1.000000" fill-rule="evenodd"/>
</svg>
